<svg xmlns="http://www.w3.org/2000/svg" viewBox="0 0 512 512">
	<defs>
		<style>
			#user {
				stroke: white;
				stroke-width: 20;
				stroke-linejoin: round;
			}
			
			#headphones {
				stroke: hsl(0, 100%, 66%);
				stroke-width: 2;
				fill: hsl(0, 100%, 66%)
			}

			#headphone-strap {
				stroke: none;
				fill: darkgrey;
				stroke-width: 0.75;
			}
		</style>
	</defs>

	<rect width="480" height="480" x="16" y="16" rx="128" ry="128" fill="hsl(250, 25%, 50%)" stroke="hsl(250, 25%, 45%)" stroke-width="16" />

	<g transform="translate(256, 256) scale(0.9) translate(-256, -256)">
		<g id="headphones">
			<g id="headphone-strap">
				<path transform="translate(85, 20) scale(15, 10)" fill-rule="evenodd" clip-rule="evenodd" d="M2.25 12C2.25 6.61522 6.61522 2.25 12 2.25C17.3848 2.25 21.75 6.61522 21.75 12V14.7927C21.8282 14.765 21.9123 14.75 22 14.75C22.4142 14.75 22.75 15.0858 22.75 15.5V17.5C22.75 17.9142 22.4142 18.25 22 18.25C21.5858 18.25 21.25 17.9142 21.25 17.5V17H20.25V12C20.25 7.44365 16.5563 3.75 12 3.75C7.44365 3.75 3.75 7.44365 3.75 12V17H2.75V17.5C2.75 17.9142 2.41421 18.25 2 18.25C1.58579 18.25 1.25 17.9142 1.25 17.5V15.5C1.25 15.0858 1.58579 14.75 2 14.75C2.08766 14.75 2.17181 14.765 2.25 14.7927V12Z" />
			</g>
			<path transform="translate(350, 120) scale(-10, 10)" d="m22 4.039c0-1.126-.913-2.039-2.039-2.039h-2.961v9h2.961c1.126 0 2.039-.913 2.039-2.039v-4.922z" />
			<path transform="translate(180, 120) scale(10)" d="m22 4.039c0-1.126-.913-2.039-2.039-2.039h-2.961v9h2.961c1.126 0 2.039-.913 2.039-2.039v-4.922z" />
		</g>

		<g id="user">
			<g transform="translate(50, 50)">
				<path d="M391.113, 426.667H35.554v-88.892c0-22.746, 8.678-45.495, 26.039-62.848 c17.353-17.357, 40.102-26.039, 62.848-26.039h177.783c22.75, 0, 45.495, 8.678, 62.852, 26.039 c17.353, 17.353, 26.035, 40.102, 26.035, 62.848V426.667z"/>
				<circle cx="215" cy="135" r="110"/>
			</g>
		</g>
	</g>
</svg>